# xmcd
#
# Track frame offsets:
#	150
#	1506
#	20714
#	37940
#	52154
#	68386
#	86368
#	99172
#	103283
#	122928
#	142325
#	143558
#	161413
#	176511
#	179492
#	200752
#	216647
#	235503
#	254222
#	266667
#	286005
#	296524
#	303652
#	321857
#
# Disc length: 4539 seconds
#
# Revision: 1
# Processed by: cddbd v1.4PL0 Copyright (c) Steve Scherf et al.
# Submitted via: audiograbber 1.80
#
DISCID=6511b918
DTITLE=Big Pun - Endangered Species
DYEAR=1900
DGENRE=
TTITLE0=Intro
TTITLE1=You Ain't A Killer
TTITLE2=Twinz (Deep Cover '98) feat. Fat Joe
TTITLE3=Whatcha Gon Do feat Terror Squad
TTITLE4=How We Roll feat Ashanti
TTITLE5=Still Not A Player feat. Joe
TTITLE6=Off The Books feat. Beatnuts and Cuban Link
TTITLE7=Words From Nore
TTITLE8=Banned From T.V. feat. Noreaga, Jadakiss, Styles, Nature and Cam'Ron
TTITLE9=Mamma feat. Tony Sunshine
TTITLE10=The Beat Box
TTITLE11=Brave In The Heart feat Terror Squad
TTITLE12=The Dream Shatterer (Orginal Version)
TTITLE13=Word With Fat Joe
TTITLE14=John Blaze feat. Fat Joe, Nas, Raekwon and Jadakiss
TTITLE15=My World
TTITLE16=Pina Colada feat. Ruff Ryders and Sheik
TTITLE17=Top Of The World (Remix) feat. Brandy and Fat Joe
TTITLE18=Livin' La Vida Loca (Remix) feat Ricky Martin, Fat Joe and Cuban Link
TTITLE19=Fire Water feat Fat Joe, Armageddon and Raekwon
TTITLE20=Classic Verses (Drop It Heavy and Fantastic 4)
TTITLE21=Freestyle With Remy Martin
TTITLE22=Wishful Thinking feat. Fat Joe, Kool G Rap and B Real
TTITLE23=How We Roll '98
EXTD=
EXTT0=
EXTT1=
EXTT2=
EXTT3=
EXTT4=
EXTT5=
EXTT6=
EXTT7=
EXTT8=
EXTT9=
EXTT10=
EXTT11=
EXTT12=
EXTT13=
EXTT14=
EXTT15=
EXTT16=
EXTT17=
EXTT18=
EXTT19=
EXTT20=
EXTT21=
EXTT22=
EXTT23=
PLAYORDER=
